<svg xmlns="http://www.w3.org/2000/svg" width="40" height="40" viewBox="0 0 40 40"><defs><style>.a{isolation:isolate;}.b{fill:#fff;}</style></defs><g class="a" transform="translate(0 -5.365)"><path class="b" d="M37.317,15.576a20.17,20.17,0,0,0-7.278-7.461A19.2,19.2,0,0,0,20,5.365,19.2,19.2,0,0,0,9.961,8.115a20.168,20.168,0,0,0-7.279,7.461A20.442,20.442,0,0,0,0,25.866,20.262,20.262,0,0,0,3.815,37.918a19.626,19.626,0,0,0,9.856,7.408,1.143,1.143,0,0,0,1.042-.187,1.056,1.056,0,0,0,.338-.8q0-.08-.013-1.441t-.013-2.375l-.6.106a7.457,7.457,0,0,1-1.445.093,10.751,10.751,0,0,1-1.81-.187,4,4,0,0,1-1.745-.8,3.386,3.386,0,0,1-1.146-1.641l-.26-.614a6.7,6.7,0,0,0-.82-1.361A3.166,3.166,0,0,0,6.067,35.1l-.182-.134a1.931,1.931,0,0,1-.338-.321,1.469,1.469,0,0,1-.234-.374q-.078-.187.13-.308a1.652,1.652,0,0,1,.755-.119l.521.08a3.761,3.761,0,0,1,1.289.641A4.268,4.268,0,0,1,9.27,35.956a4.668,4.668,0,0,0,1.445,1.669,3.015,3.015,0,0,0,1.706.574,7.23,7.23,0,0,0,1.484-.133,5.092,5.092,0,0,0,1.172-.4,4.368,4.368,0,0,1,1.276-2.75,17.436,17.436,0,0,1-2.669-.481,10.485,10.485,0,0,1-2.448-1.042A7.055,7.055,0,0,1,9.14,31.6a8.679,8.679,0,0,1-1.367-2.8,13.641,13.641,0,0,1-.534-4A7.9,7.9,0,0,1,9.3,19.3a7.342,7.342,0,0,1,.182-5.445,3.569,3.569,0,0,1,2.24.36,15.484,15.484,0,0,1,2.174,1.028q.69.426,1.107.721a18.364,18.364,0,0,1,10,0l.99-.64a13.869,13.869,0,0,1,2.4-1.175,3.337,3.337,0,0,1,2.11-.293A7.271,7.271,0,0,1,30.7,19.3a7.9,7.9,0,0,1,2.058,5.5,13.793,13.793,0,0,1-.534,4.017,8.339,8.339,0,0,1-1.38,2.8,7.322,7.322,0,0,1-2.11,1.775,10.5,10.5,0,0,1-2.448,1.041,17.418,17.418,0,0,1-2.669.481,4.82,4.82,0,0,1,1.354,3.79v5.632a1.077,1.077,0,0,0,.326.8,1.11,1.11,0,0,0,1.028.187,19.623,19.623,0,0,0,9.857-7.407A20.266,20.266,0,0,0,40,25.865,20.458,20.458,0,0,0,37.317,15.576Z" transform="translate(0)"/></g></svg>