<svg id="help_small" data-name="help small" xmlns="http://www.w3.org/2000/svg" width="16" height="16" viewBox="0 0 16 16">
  <g id="Icon_ionic-ios-help-circle-outline" data-name="Icon ionic-ios-help-circle-outline" transform="translate(-3.375 -3.375)" opacity="0">
    <path id="Path_2630" data-name="Path 2630" d="M11.375,4.452a6.92,6.92,0,1,1-4.9,2.027,6.877,6.877,0,0,1,4.9-2.027m0-1.077a8,8,0,1,0,8,8,8,8,0,0,0-8-8Z" transform="translate(0 0)" fill="#fff"/>
    <path id="Path_2631" data-name="Path 2631" d="M16.478,11.25c1.726,0,2.914.984,2.914,2.4a2.321,2.321,0,0,1-1.294,2.1c-.8.478-1.073.828-1.073,1.434v.374h-1.6l-.014-.407A1.982,1.982,0,0,1,16.5,15.068c.778-.478,1.1-.781,1.1-1.367a1.126,1.126,0,0,0-1.238-1.017,1.178,1.178,0,0,0-1.234,1.164H13.5C13.532,12.324,14.628,11.25,16.478,11.25Zm-1.211,8.109a.988.988,0,1,1,.985.975A.977.977,0,0,1,15.268,19.359Z" transform="translate(-5.071 -4.417)" fill="#fff"/>
  </g>
  <g id="Icon_ionic-ios-help-circle-outline-2" data-name="Icon ionic-ios-help-circle-outline" transform="translate(-3.375 -3.375)">
    <path id="Subtraction_1" data-name="Subtraction 1" d="M-783.625-2164.625a8.009,8.009,0,0,1-8-8,8.009,8.009,0,0,1,8-8,8.009,8.009,0,0,1,8,8A8.009,8.009,0,0,1-783.625-2164.625Zm-.193-5.407a.981.981,0,0,0-.985.975.97.97,0,0,0,.985.975.972.972,0,0,0,.989-.975A.972.972,0,0,0-783.818-2170.032Zm.115-5.7a1.119,1.119,0,0,1,1.238,1.017c0,.589-.341.9-1.105,1.367a1.972,1.972,0,0,0-1.086,2.082l.013.407h1.6v-.374c0-.6.261-.949,1.073-1.434a2.326,2.326,0,0,0,1.293-2.1c0-1.412-1.2-2.4-2.914-2.4a2.664,2.664,0,0,0-2.978,2.6h1.634A1.177,1.177,0,0,1-783.7-2175.733Z" transform="translate(795 2184)" fill="#fff"/>
  </g>
</svg>
