<svg id="help-big" xmlns="http://www.w3.org/2000/svg" width="48" height="48" viewBox="0 0 48 48">
  <path id="Path_2630" data-name="Path 2630" d="M27.375,6.606A20.773,20.773,0,0,1,42.063,42.063,20.773,20.773,0,0,1,12.687,12.687,20.632,20.632,0,0,1,27.375,6.606m0-3.231a24,24,0,1,0,24,24,24,24,0,0,0-24-24Z" transform="translate(-3.375 -3.375)" fill="#fff"/>
  <path id="Path_2631" data-name="Path 2631" d="M22.574,11.25c5.259,0,8.878,2.917,8.878,7.111,0,2.777-1.346,4.7-3.941,6.227-2.44,1.417-3.268,2.454-3.268,4.25v1.108H19.377l-.042-1.206c-.238-2.889.771-4.684,3.31-6.171,2.37-1.417,3.366-2.314,3.366-4.053S24.327,15.5,22.238,15.5a3.548,3.548,0,0,0-3.759,3.45H13.5C13.6,14.434,16.936,11.25,22.574,11.25ZM18.886,35.289a3.011,3.011,0,1,1,3,2.889A2.937,2.937,0,0,1,18.886,35.289Z" transform="translate(1.524 -0.714)" fill="#fff"/>
</svg>
