<svg xmlns="http://www.w3.org/2000/svg" width="39.341" height="49.02" viewBox="0 0 39.341 49.02"><defs><style>.a{opacity:0.89;}.b{fill:#fff;stroke:#fff;}</style></defs><g class="a" transform="translate(-1.31 0.012)"><g transform="translate(1.81 0.509)"><path class="b" d="M-6919.7,1142.07a.346.346,0,0,0-.132.034l-7.794,3.413a11.073,11.073,0,0,0-11.756,0l-7.789-3.412a.413.413,0,0,0-.529.218.411.411,0,0,0,.2.538l7.326,3.209c-.253.192-.495.393-.733.6a2.77,2.77,0,0,0-.9,1.73l-5.986,1.2a.411.411,0,0,0-.3.482.412.412,0,0,0,.466.326l5.845-1.171a2.777,2.777,0,0,0,.877,1.576l.091.084c-.4.1-.8.2-1.2.316a6.62,6.62,0,0,0-4.755,5.651,23.743,23.743,0,0,0,.34,7.267,4.554,4.554,0,0,0,2.07,2.956,9.672,9.672,0,0,0,4.161,1.4,13.5,13.5,0,0,0,2.61,2.275v2.751a.823.823,0,0,0-.569.141l-2,1.368-1.075-1.109a1.453,1.453,0,0,0-1.236-.425,11.782,11.782,0,0,0-10.207,11.678v3.454a1.449,1.449,0,0,0,1.447,1.445h35.443a1.439,1.439,0,0,0,1.023-.421,1.467,1.467,0,0,0,.429-1.024l-.006-3.454a11.775,11.775,0,0,0-10.208-11.677h0a1.444,1.444,0,0,0-1.23.424l-1.078,1.108-1.992-1.369a.843.843,0,0,0-.576-.141l0-2.752a13.639,13.639,0,0,0,2.613-2.275,9.655,9.655,0,0,0,4.164-1.4,4.537,4.537,0,0,0,2.063-2.957,23.6,23.6,0,0,0,.345-7.266,6.625,6.625,0,0,0-4.763-5.653c-.394-.113-.794-.218-1.194-.317.032-.026.066-.054.1-.081a2.8,2.8,0,0,0,.874-1.577l5.848,1.17a.414.414,0,0,0,.465-.327.415.415,0,0,0-.3-.481l-5.989-1.2a2.779,2.779,0,0,0-.9-1.728c-.236-.211-.48-.414-.734-.6l7.323-3.21a.419.419,0,0,0,.236-.478.418.418,0,0,0-.432-.312Zm-15.093,13.026h2.587a7.226,7.226,0,0,1,6.409,3.888,7.218,7.218,0,0,1-.492,7.479,12.734,12.734,0,0,1-5.164,4.511,4.755,4.755,0,0,1-4.094,0,12.712,12.712,0,0,1-5.166-4.511,7.215,7.215,0,0,1-.489-7.481,7.214,7.214,0,0,1,6.409-3.887Zm-1.969,16.177c.281.159.566.309.859.448a5.575,5.575,0,0,0,4.807,0c.291-.14.579-.289.857-.448v2.835l-3.26,3.347-3.263-3.347Zm-5.5,3.03a.623.623,0,0,1,.446.19l5.6,5.749-8.769,9h-6.239a.619.619,0,0,1-.618-.62v-3.454a10.955,10.955,0,0,1,9.493-10.859c.029,0,.058-.008.086-.01Zm17.555,0a.527.527,0,0,1,.057.01h0a10.956,10.956,0,0,1,9.493,10.86v3.453a.607.607,0,0,1-.181.44.623.623,0,0,1-.44.18h-23.774l14.373-14.75a.614.614,0,0,1,.4-.188h.066Zm-12.978.034,3.61,3.707-1.561,1.607-3.924-4.028Zm8.381,0,1.872,1.286-13.269,13.619h-3.127Z" transform="translate(6952.67 -1142.066)"/></g></g></svg>